<svg id="Layer_1" data-name="Layer 1" xmlns="http://www.w3.org/2000/svg" viewBox="0 0 661.66 205.91"><defs><style>.cls-1{fill:#fff;}</style></defs><title>CompassDev</title><path class="cls-1" d="M265.09,92.83a40.33,40.33,0,0,0,0-5.58C263.9,71.33,253.83,59.32,245.59,52,237,44.5,226.92,38.88,217.14,33.45c-2.66-1.48-5.31-3-7.92-4.45l-13.88-8q-10.47-6.06-21-12.09L172.92,8l-1.46.84L47.9,80.22,8.17,103.16v58l45.24,26.12c11,6.33,23.41,13.51,37.24,18a178.74,178.74,0,0,0,41.14,8q8,0.64,16,.64a198,198,0,0,0,26.64-1.79,166.81,166.81,0,0,0,40-10.38c14.55-5.89,26.39-13.43,35.17-22.41,10.53-10.78,15.87-23.69,15.44-37.34h0V92.83ZM14,109.94l39.37,22.73c11,6.33,23.41,13.51,37.24,18a178.77,178.77,0,0,0,41.14,8,199.23,199.23,0,0,0,42.66-1.15,166.81,166.81,0,0,0,40-10.38c14.56-5.89,26.39-13.43,35.17-22.41a60.25,60.25,0,0,0,9.23-12.12c-1.21,9.7-5.57,18.16-13.44,26.21-8.21,8.4-19.37,15.49-33.17,21.07a160.94,160.94,0,0,1-38.61,10,193.2,193.2,0,0,1-41.4,1.12,173,173,0,0,1-39.78-7.77C79.23,159,67.07,152,56.35,145.77L14,121.35V109.94Zm231.54-3.32C237,99.07,226.92,93.46,217.13,88c-2.66-1.48-5.31-2.95-7.92-4.45l-13.85-8q-10.49-6.07-21-12.11l-1.46-.84-1.46.84-86.65,50L58.37,128.75l-2-1.16L48.49,123,172.92,51.21q9.76,5.61,19.5,11.26l13.86,8c2.64,1.52,5.37,3,8,4.5,9.51,5.28,19.35,10.74,27.42,17.86a57.64,57.64,0,0,1,12.78,15.67,48.69,48.69,0,0,1-2.63,4.36,72.15,72.15,0,0,0-6.26-6.25m2.62,11c-0.88,1-1.79,2.05-2.77,3.05-8.21,8.4-19.37,15.49-33.17,21.07a160.9,160.9,0,0,1-38.61,10,193.33,193.33,0,0,1-41.4,1.12,172.93,172.93,0,0,1-39.78-7.77c-10.08-3.29-19.52-8.14-28.18-13l23.45-13.54L172.92,69.4q9.76,5.61,19.5,11.26l13.86,8c2.64,1.52,5.37,3,8,4.5,9.51,5.28,19.35,10.74,27.42,17.86a65.51,65.51,0,0,1,6.51,6.61m-2.62-29.21c-8.55-7.54-18.67-13.16-28.45-18.59-2.66-1.48-5.31-2.95-7.92-4.45l-13.85-8q-10.49-6.07-21-12.11l-1.46-.84-1.46.84L42.62,119.65l-9.88-5.7,12.08-7,128.1-74q9.75,5.6,19.47,11.24l13.88,8c2.64,1.52,5.37,3,8,4.5,9.51,5.28,19.35,10.74,27.42,17.86,5.91,5.22,13.48,13.7,16.4,24.68q-0.33,1.26-.75,2.52a66.27,66.27,0,0,0-11.76-13.42m-0.15,86.84c-8.21,8.4-19.37,15.49-33.17,21.07a160.85,160.85,0,0,1-38.61,10,193.33,193.33,0,0,1-41.4,1.12,172.85,172.85,0,0,1-39.78-7.77c-13.25-4.32-25.4-11.34-36.12-17.53L14,157.73V146.33l39.37,22.73c11,6.33,23.41,13.51,37.24,18a178.79,178.79,0,0,0,41.14,8q8,0.64,16,.64A198.16,198.16,0,0,0,174.45,194a166.81,166.81,0,0,0,40-10.38c14.55-5.89,26.39-13.43,35.17-22.41a58.69,58.69,0,0,0,9.2-12.08c-1.58,11.7-7.89,20.52-13.41,26.16m0-18.19c-8.21,8.4-19.37,15.49-33.17,21.07a160.9,160.9,0,0,1-38.61,10,193.33,193.33,0,0,1-41.4,1.12,172.9,172.9,0,0,1-39.78-7.77c-13.25-4.32-25.4-11.34-36.12-17.53L14,139.54V128.13l39.37,22.73c11,6.33,23.41,13.51,37.24,18a178.79,178.79,0,0,0,41.14,8q8,0.64,16,.64a197.83,197.83,0,0,0,26.64-1.79,166.76,166.76,0,0,0,40-10.38C229,159.51,240.86,152,249.64,143a58.69,58.69,0,0,0,9.24-12.14c-1.21,9.7-5.57,18.17-13.44,26.22m0.15-86.84c-8.55-7.55-18.67-13.16-28.45-18.59-2.66-1.48-5.31-3-7.92-4.45l-13.88-8q-10.47-6.06-21-12.09l-1.46-.84-1.46.84L41.88,101.89l-15,8.67L17,104.85,50.83,85.31,172.92,14.82q9.75,5.6,19.47,11.24l13.88,8c2.64,1.52,5.37,3,8,4.5,9.51,5.28,19.35,10.74,27.42,17.86,7.22,6.37,16,16.69,17.39,30.07a65.36,65.36,0,0,0-13.5-16.28M262.14,142h0Z" transform="translate(-8.17 -8.05)"/><path class="cls-1" d="M361.85,97.42a16.89,16.89,0,0,0,18.38,3.49,16.74,16.74,0,0,0,5.26-3.58,16.2,16.2,0,0,0,3.46-5.27,16.91,16.91,0,0,0,1.23-6.42,17.3,17.3,0,0,0-1.23-6.51,15.73,15.73,0,0,0-3.43-5.25,16.11,16.11,0,0,0-5.24-3.46,18.1,18.1,0,0,0-13.15,0,15.63,15.63,0,0,0-8.77,8.67,17.14,17.14,0,0,0-1.26,6.58,16.94,16.94,0,0,0,1.26,6.52,16.12,16.12,0,0,0,3.49,5.27m2.4-16.09a10.44,10.44,0,0,1,2.1-3.4,9.65,9.65,0,0,1,3.2-2.24,10.67,10.67,0,0,1,8.26,0A9.46,9.46,0,0,1,381,78a10.68,10.68,0,0,1,2,3.43A12.53,12.53,0,0,1,383,90a10.79,10.79,0,0,1-2.11,3.46,9.42,9.42,0,0,1-3.2,2.27,10.23,10.23,0,0,1-8,0,9.74,9.74,0,0,1-3.23-2.25,11.13,11.13,0,0,1-2.23-3.44,11.33,11.33,0,0,1-.82-4.39,12,12,0,0,1,.76-4.34" transform="translate(-8.17 -8.05)"/><path class="cls-1" d="M402.15,84c0-2.93.69-5.22,2-6.8a6.72,6.72,0,0,1,5.43-2.35,6,6,0,0,1,2.69.58,5.67,5.67,0,0,1,2,1.65,8.35,8.35,0,0,1,1.29,2.53,10.54,10.54,0,0,1,.47,3.21v18.34h6.27V84a12.21,12.21,0,0,1,.64-4.18A8.54,8.54,0,0,1,424.63,77a6.21,6.21,0,0,1,2.33-1.6,7.34,7.34,0,0,1,5.7.12,5.84,5.84,0,0,1,2,1.71,7.29,7.29,0,0,1,1.17,2.51,12.5,12.5,0,0,1,.38,3.13v18.34h6.2v-18c0-4.54-1.12-8-3.34-10.44a11.35,11.35,0,0,0-8.67-3.62,12.38,12.38,0,0,0-3.77.56,11.77,11.77,0,0,0-3.12,1.51,12.21,12.21,0,0,0-2.36,2.1,12.89,12.89,0,0,0-.92,1.2A9.94,9.94,0,0,0,417,71a11.38,11.38,0,0,0-6.51-1.88A10.37,10.37,0,0,0,405,70.62a14.31,14.31,0,0,0-2.86,2.29V70.15h-6.21v31h6.21V84Z" transform="translate(-8.17 -8.05)"/><path class="cls-1" d="M472.4,100.94a15.39,15.39,0,0,0,5-3.53,16.37,16.37,0,0,0,3.3-5.27,17.73,17.73,0,0,0,1.19-6.51,18.59,18.59,0,0,0-1-6.11,15.88,15.88,0,0,0-3-5.27,14.93,14.93,0,0,0-11.54-5.1,15.48,15.48,0,0,0-4.18.52,14.89,14.89,0,0,0-3.24,1.3,12.58,12.58,0,0,0-2.45,1.77l-0.77.75V70.15h-6.2v45.62h6.2V98.09a16.64,16.64,0,0,0,3.53,2.55,14.22,14.22,0,0,0,6.92,1.6,15.37,15.37,0,0,0,6.28-1.3m-10.9-5.19A10.08,10.08,0,0,1,456,90.19a11.47,11.47,0,0,1-.82-4.4,12.45,12.45,0,0,1,.79-4.56,11,11,0,0,1,2.14-3.48,9.13,9.13,0,0,1,3.16-2.23,9.92,9.92,0,0,1,3.93-.78,10.29,10.29,0,0,1,4.49.93,9.74,9.74,0,0,1,3.2,2.43,10.36,10.36,0,0,1,1.93,3.47,12.86,12.86,0,0,1,0,8.07,10.65,10.65,0,0,1-1.9,3.47,9.67,9.67,0,0,1-3.17,2.46,10.34,10.34,0,0,1-8.3.17" transform="translate(-8.17 -8.05)"/><path class="cls-1" d="M508.66,100.64a16.7,16.7,0,0,0,3.5-2.55v3.09h6.2v-31h-6.2v3.29q-0.34-.35-0.7-0.69A12.86,12.86,0,0,0,509,71a15,15,0,0,0-3-1.3,13.14,13.14,0,0,0-3.85-.53,16.6,16.6,0,0,0-6.43,1.23,15.87,15.87,0,0,0-5.14,3.43,15.71,15.71,0,0,0-3.43,5.24,18.48,18.48,0,0,0,.07,13.41,16.42,16.42,0,0,0,3.49,5.24,15.31,15.31,0,0,0,5.09,3.37,16,16,0,0,0,6,1.16,13.9,13.9,0,0,0,6.83-1.6m-13.85-7.53a9.88,9.88,0,0,1-1.89-3.46,13.48,13.48,0,0,1-.62-4,12.7,12.7,0,0,1,.65-4,11,11,0,0,1,1.9-3.51A9.12,9.12,0,0,1,498,75.67a10.67,10.67,0,0,1,4.59-.93,9.49,9.49,0,0,1,7,3,10.7,10.7,0,0,1,2.16,3.47,12.45,12.45,0,0,1,.79,4.56,10.9,10.9,0,0,1-.85,4.36,11.09,11.09,0,0,1-2.26,3.39,10.17,10.17,0,0,1-3.21,2.21,9.47,9.47,0,0,1-3.78.78,9.77,9.77,0,0,1-7.7-3.42" transform="translate(-8.17 -8.05)"/><path class="cls-1" d="M545.37,92.59a10,10,0,0,0-.47-3.05,8.44,8.44,0,0,0-1.55-2.79,11.39,11.39,0,0,0-2.81-2.37,19.9,19.9,0,0,0-4.3-1.9,17.5,17.5,0,0,1-3.15-1.22,9.17,9.17,0,0,1-1.77-1.18,2.47,2.47,0,0,1-.72-1,3.53,3.53,0,0,1-.18-1.12,3.1,3.1,0,0,1,1-2.32,4.27,4.27,0,0,1,3.07-1,4,4,0,0,1,2.69,1,4.37,4.37,0,0,1,1.47,2.5l0.11,0.51h6.32l-0.18-.79a13.91,13.91,0,0,0-1.17-3.29,9.9,9.9,0,0,0-2.09-2.76,9.71,9.71,0,0,0-3.13-1.9,11.89,11.89,0,0,0-4.23-.69,12.13,12.13,0,0,0-4.26.69,9.22,9.22,0,0,0-3.14,1.9,8,8,0,0,0-1.92,2.8,8.84,8.84,0,0,0-.64,3.32,8.53,8.53,0,0,0,2.16,6A14.89,14.89,0,0,0,533,87.56a25.41,25.41,0,0,1,3.27,1.3,7.28,7.28,0,0,1,1.88,1.28,3.19,3.19,0,0,1,.83,1.28,5.29,5.29,0,0,1,.22,1.55,3.67,3.67,0,0,1-1.05,2.68,4.4,4.4,0,0,1-3.26,1.08,5.11,5.11,0,0,1-3.73-1.21,6.08,6.08,0,0,1-1.66-3.06l-0.11-.51h-6.28l0.15,0.77a14.92,14.92,0,0,0,1.23,3.73,10.43,10.43,0,0,0,2.25,3,10,10,0,0,0,3.38,2,13.26,13.26,0,0,0,4.57.73,11.24,11.24,0,0,0,7.76-2.62,9,9,0,0,0,2.95-7" transform="translate(-8.17 -8.05)"/><path class="cls-1" d="M561.49,96.72a5.11,5.11,0,0,1-3.73-1.21,6.08,6.08,0,0,1-1.65-3.06L556,91.94h-6.28l0.15,0.78a15,15,0,0,0,1.23,3.73,10.43,10.43,0,0,0,2.25,3,10,10,0,0,0,3.38,2,13.25,13.25,0,0,0,4.57.73,11.24,11.24,0,0,0,7.76-2.62,9,9,0,0,0,2.95-7,10,10,0,0,0-.47-3.05A8.42,8.42,0,0,0,570,86.74a11.39,11.39,0,0,0-2.81-2.37,19.92,19.92,0,0,0-4.3-1.9,17.5,17.5,0,0,1-3.15-1.22A9.13,9.13,0,0,1,558,80.06a2.47,2.47,0,0,1-.72-1,3.53,3.53,0,0,1-.18-1.12,3.1,3.1,0,0,1,1-2.32,4.27,4.27,0,0,1,3.07-1,4,4,0,0,1,2.69,1,4.37,4.37,0,0,1,1.47,2.5l0.11,0.51h6.32l-0.18-.79a13.93,13.93,0,0,0-1.17-3.29,9.92,9.92,0,0,0-2.1-2.76,9.72,9.72,0,0,0-3.13-1.9,11.88,11.88,0,0,0-4.23-.69,12.13,12.13,0,0,0-4.26.69,9.24,9.24,0,0,0-3.14,1.9,8,8,0,0,0-1.92,2.8,8.84,8.84,0,0,0-.64,3.32,8.53,8.53,0,0,0,2.16,6,14.89,14.89,0,0,0,6.48,3.72,25.43,25.43,0,0,1,3.26,1.3,7.28,7.28,0,0,1,1.88,1.28,3.19,3.19,0,0,1,.83,1.28A5.27,5.27,0,0,1,565.8,93a3.67,3.67,0,0,1-1.06,2.68,4.4,4.4,0,0,1-3.26,1.07" transform="translate(-8.17 -8.05)"/><path class="cls-1" d="M381.65,140.67a14.68,14.68,0,0,0-4.76-4,16.3,16.3,0,0,0-13.5-.27,15.22,15.22,0,0,0-4.85,3.54,15.79,15.79,0,0,0-3.1,5.14,17.37,17.37,0,0,0-1.09,6.09,18.53,18.53,0,0,0,1.19,6.69,16.65,16.65,0,0,0,3.32,5.39,15,15,0,0,0,5.18,3.6,17,17,0,0,0,6.7,1.3,15.24,15.24,0,0,0,4.92-.75,15.42,15.42,0,0,0,3.91-1.94,14.58,14.58,0,0,0,2.92-2.66,17,17,0,0,0,2-2.94l0.5-1h-7l-0.19.24a9.74,9.74,0,0,1-3,2.46,9,9,0,0,1-4.13.84,9.19,9.19,0,0,1-3.73-.78,11,11,0,0,1-3.16-2.1,10.23,10.23,0,0,1-2.18-3,8.22,8.22,0,0,1-.78-2.93h24l0.12-.49a5.51,5.51,0,0,0,.11-0.93c0-.38,0-0.73,0-1a19.69,19.69,0,0,0-.8-5.33,15.49,15.49,0,0,0-2.62-5.21m-20.75,7.59a10.82,10.82,0,0,1,.74-2.37,8.76,8.76,0,0,1,1.82-2.66,8.86,8.86,0,0,1,2.75-1.85A8.9,8.9,0,0,1,376,143.2a8.78,8.78,0,0,1,1.85,2.63,10.2,10.2,0,0,1,.77,2.43H360.9Z" transform="translate(-8.17 -8.05)"/><path class="cls-1" d="M407.62,136.1l-6.3,17.76q-0.56,1.63-1.1,3.48-0.21.72-.39,1.4-0.14-.53-0.31-1.12c-0.37-1.28-.8-2.55-1.25-3.76L391.9,136.1h-6.42l11.47,31h5.56l11.47-31h-6.36Z" transform="translate(-8.17 -8.05)"/><path class="cls-1" d="M441.27,140.67a14.68,14.68,0,0,0-4.76-4,16.3,16.3,0,0,0-13.5-.27,15.22,15.22,0,0,0-4.85,3.54,15.79,15.79,0,0,0-3.1,5.14,17.37,17.37,0,0,0-1.09,6.09,18.53,18.53,0,0,0,1.19,6.69,16.65,16.65,0,0,0,3.32,5.39,15,15,0,0,0,5.18,3.6,17,17,0,0,0,6.7,1.3,15.24,15.24,0,0,0,4.91-.75,15.42,15.42,0,0,0,3.91-1.94,14.58,14.58,0,0,0,2.92-2.66,17,17,0,0,0,2-2.94l0.5-1h-7l-0.2.24a9.74,9.74,0,0,1-3,2.46,9,9,0,0,1-4.13.84,9.19,9.19,0,0,1-3.73-.78,11,11,0,0,1-3.16-2.1,10.23,10.23,0,0,1-2.18-3,8.22,8.22,0,0,1-.78-2.93h24l0.12-.49a5.62,5.62,0,0,0,.11-0.93c0-.38,0-0.73,0-1a19.7,19.7,0,0,0-.8-5.33,15.49,15.49,0,0,0-2.62-5.21m-20.75,7.59a10.81,10.81,0,0,1,.74-2.37,8.76,8.76,0,0,1,1.82-2.66,8.87,8.87,0,0,1,2.75-1.85,8.9,8.9,0,0,1,9.74,1.82,8.78,8.78,0,0,1,1.85,2.63,10.21,10.21,0,0,1,.77,2.43H420.52Z" transform="translate(-8.17 -8.05)"/><rect class="cls-1" x="441.29" y="115.45" width="6.2" height="43.63"/><path class="cls-1" d="M488.79,139.82a16.09,16.09,0,0,0-5.24-3.46,18.11,18.11,0,0,0-13.15,0,15.63,15.63,0,0,0-8.77,8.67,17.13,17.13,0,0,0-1.26,6.58,16.93,16.93,0,0,0,1.26,6.52,16.1,16.1,0,0,0,3.49,5.27,16.89,16.89,0,0,0,18.38,3.49,16.7,16.7,0,0,0,5.26-3.58,16.19,16.19,0,0,0,3.46-5.27,16.91,16.91,0,0,0,1.23-6.42,17.3,17.3,0,0,0-1.23-6.51,15.74,15.74,0,0,0-3.43-5.25m-2.5,16.1a10.76,10.76,0,0,1-2.11,3.46,9.41,9.41,0,0,1-3.2,2.27,10.24,10.24,0,0,1-8,0,9.73,9.73,0,0,1-3.23-2.25,11.11,11.11,0,0,1-2.23-3.44,11.33,11.33,0,0,1-.82-4.39,12,12,0,0,1,.76-4.34,10.47,10.47,0,0,1,2.1-3.4,9.64,9.64,0,0,1,3.2-2.24,10.68,10.68,0,0,1,8.26,0,9.46,9.46,0,0,1,3.2,2.3,10.67,10.67,0,0,1,2,3.43,12.52,12.52,0,0,1,0,8.53" transform="translate(-8.17 -8.05)"/><path class="cls-1" d="M526.41,140.2a14.93,14.93,0,0,0-11.54-5.1,15.48,15.48,0,0,0-4.18.52,14.94,14.94,0,0,0-3.24,1.3,12.53,12.53,0,0,0-2.45,1.77c-0.27.25-.52,0.5-0.77,0.75V136.1H498v45.62h6.2V164a16.68,16.68,0,0,0,3.53,2.55,14.22,14.22,0,0,0,6.92,1.6,15.46,15.46,0,0,0,11.3-4.83,16.34,16.34,0,0,0,3.3-5.26,17.7,17.7,0,0,0,1.19-6.51,18.59,18.59,0,0,0-1-6.11,15.88,15.88,0,0,0-3-5.27m-3,15.39a10.63,10.63,0,0,1-1.9,3.47,9.68,9.68,0,0,1-3.17,2.46,10.13,10.13,0,0,1-13.76-5.39,11.45,11.45,0,0,1-.82-4.4,12.48,12.48,0,0,1,.79-4.56,11,11,0,0,1,2.14-3.48,9.13,9.13,0,0,1,3.16-2.23,9.92,9.92,0,0,1,3.93-.78,10.31,10.31,0,0,1,4.49.92,9.74,9.74,0,0,1,3.2,2.43,10.38,10.38,0,0,1,1.93,3.47,12.86,12.86,0,0,1,0,8.07" transform="translate(-8.17 -8.05)"/><path class="cls-1" d="M569.64,135.1a12.42,12.42,0,0,0-3.77.56,11.81,11.81,0,0,0-3.12,1.51,12.21,12.21,0,0,0-2.36,2.1,12.9,12.9,0,0,0-.92,1.21,9.94,9.94,0,0,0-3.25-3.49,11.38,11.38,0,0,0-6.51-1.88,10.37,10.37,0,0,0-5.49,1.46,14.33,14.33,0,0,0-2.86,2.29V136.1h-6.2v31h6.2V150c0-2.93.69-5.22,2-6.81a6.72,6.72,0,0,1,5.43-2.35,6,6,0,0,1,2.69.58,5.68,5.68,0,0,1,2,1.65,8.35,8.35,0,0,1,1.29,2.53,10.56,10.56,0,0,1,.47,3.21v18.34h6.27V150a12.21,12.21,0,0,1,.64-4.18,8.54,8.54,0,0,1,1.67-2.86,6.21,6.21,0,0,1,2.33-1.6,7.34,7.34,0,0,1,5.7.12,5.84,5.84,0,0,1,2,1.71,7.31,7.31,0,0,1,1.17,2.51,12.49,12.49,0,0,1,.38,3.13v18.34h6.2v-18c0-4.54-1.12-8-3.34-10.44a11.35,11.35,0,0,0-8.67-3.62" transform="translate(-8.17 -8.05)"/><path class="cls-1" d="M613.35,140.67a14.68,14.68,0,0,0-4.76-4,16.3,16.3,0,0,0-13.5-.27,15.22,15.22,0,0,0-4.85,3.54,15.79,15.79,0,0,0-3.1,5.14,17.37,17.37,0,0,0-1.09,6.09,18.53,18.53,0,0,0,1.19,6.69,16.65,16.65,0,0,0,3.32,5.39,15,15,0,0,0,5.18,3.6,17,17,0,0,0,6.7,1.3,15.24,15.24,0,0,0,4.91-.75,15.42,15.42,0,0,0,3.91-1.94,14.58,14.58,0,0,0,2.92-2.66,17,17,0,0,0,2-2.94l0.5-1h-7l-0.2.24a9.74,9.74,0,0,1-3,2.46,9,9,0,0,1-4.13.84,9.19,9.19,0,0,1-3.73-.78,11,11,0,0,1-3.16-2.1,10.23,10.23,0,0,1-2.18-3,8.2,8.2,0,0,1-.78-2.93h24l0.12-.49a5.62,5.62,0,0,0,.11-0.93c0-.38,0-0.73,0-1a19.7,19.7,0,0,0-.8-5.33,15.49,15.49,0,0,0-2.62-5.21m-20.75,7.59a10.81,10.81,0,0,1,.74-2.37,8.76,8.76,0,0,1,1.82-2.66,8.87,8.87,0,0,1,2.75-1.85,8.9,8.9,0,0,1,9.74,1.82,8.78,8.78,0,0,1,1.85,2.63,10.21,10.21,0,0,1,.77,2.43H592.6Z" transform="translate(-8.17 -8.05)"/><path class="cls-1" d="M644.86,138.23a10.71,10.71,0,0,0-4-2.41,13.14,13.14,0,0,0-9.45.36,10.94,10.94,0,0,0-3.72,2.67V136.1h-6.2v31h6.2V150.65c0-3.29.74-5.79,2.19-7.42a7.46,7.46,0,0,1,5.91-2.42,6.21,6.21,0,0,1,5.06,2.16c1.24,1.47,1.86,3.65,1.86,6.5v17.66h6.2v-18a16.93,16.93,0,0,0-1.14-6.59,12.86,12.86,0,0,0-2.91-4.35" transform="translate(-8.17 -8.05)"/><path class="cls-1" d="M669,161.57a10.21,10.21,0,0,1-5.28.22,2.49,2.49,0,0,1-1.16-.77,3.72,3.72,0,0,1-.73-1.61,13.1,13.1,0,0,1-.26-2.86V141.49h7.94v-5.4h-7.94v-9.5h-6.2v9.5h-3.91v5.4h3.91v14.87a25.48,25.48,0,0,0,.32,4.11,9.53,9.53,0,0,0,1.33,3.6,7.09,7.09,0,0,0,2.86,2.53,10.55,10.55,0,0,0,4.7.91,15.25,15.25,0,0,0,4.8-.66l0.44-.15v-5.35Z" transform="translate(-8.17 -8.05)"/><path class="cls-1" d="M329.54,103.84A24,24,0,0,0,352,88.06h-7.2A17.4,17.4,0,1,1,345,72h7.15a24,24,0,1,0-22.65,31.83" transform="translate(-8.17 -8.05)"/><path class="cls-1" d="M327.14,119.33H310.53v48h16.61a24,24,0,1,0,0-48m0,41.37h-10V125.94h10a17.38,17.38,0,1,1,0,34.77" transform="translate(-8.17 -8.05)"/></svg>